<svg id="Capa_1" data-name="Capa 1" xmlns="http://www.w3.org/2000/svg" viewBox="0 0 1430.09 452.51"><defs><style>.cls-1{fill:#1d1d1b;}.cls-2{fill:#3cb4e5;}.cls-3{fill:#003e52;}</style></defs><title>2</title><path class="cls-1" d="M628.07,308.06h-9.7V352q0,8.68-3.83,12.78a13,13,0,0,1-10,4.11q-6.63,0-10.26-4.29T590.66,352V246.77q0-9,4-13t13-4H652.7a136.52,136.52,0,0,1,15.95.8,40.43,40.43,0,0,1,11.94,3.21A34.72,34.72,0,0,1,692,241.55a33.94,33.94,0,0,1,7.51,11.7A39.06,39.06,0,0,1,702,267.39q0,15.28-8.62,24.44t-26.17,13a50.71,50.71,0,0,1,14.08,11.57,117,117,0,0,1,12,16.28,120.61,120.61,0,0,1,8.21,15.58q2.94,6.94,2.94,9.56a9.77,9.77,0,0,1-1.73,5.36,12.15,12.15,0,0,1-4.71,4.2,14.92,14.92,0,0,1-6.9,1.54,13.46,13.46,0,0,1-7.84-2.19,21.21,21.21,0,0,1-5.46-5.55q-2.28-3.36-6.2-9.89l-11.1-18.47a101.94,101.94,0,0,0-10.68-15.49,26.35,26.35,0,0,0-9.56-7.27A32.82,32.82,0,0,0,628.07,308.06Zm15.86-57.46H618.37v37.59h24.81A69.54,69.54,0,0,0,660,286.46q6.81-1.72,10.4-5.88T674,269.16a17.26,17.26,0,0,0-10.91-16.51Q658.19,250.6,643.93,250.6Z" transform="translate(-23.72 -26.12)"/><path class="cls-1" d="M808.29,252.65H778.07V352q0,8.6-3.83,12.74a12.85,12.85,0,0,1-9.89,4.15,13,13,0,0,1-10-4.2c-2.58-2.8-3.88-7-3.88-12.69V252.65H720.23q-7.1,0-10.54-3.13a11.61,11.61,0,0,1,.14-16.65q3.58-3.08,10.4-3.08h88.06q7.19,0,10.68,3.17a10.68,10.68,0,0,1,3.5,8.31,10.46,10.46,0,0,1-3.54,8.25Q815.38,252.66,808.29,252.65Z" transform="translate(-23.72 -26.12)"/><path class="cls-1" d="M830.77,352V244.25q0-8.4,3.83-12.59a12.73,12.73,0,0,1,9.88-4.2,13.24,13.24,0,0,1,10.13,4.15q3.87,4.15,3.87,12.64V352c0,5.67-1.29,9.89-3.87,12.69a13.14,13.14,0,0,1-10.13,4.2,12.74,12.74,0,0,1-9.84-4.25Q830.77,360.39,830.77,352Z" transform="translate(-23.72 -26.12)"/><path class="cls-1" d="M926.39,313.28H901V352q0,8.31-3.91,12.6a13.81,13.81,0,0,1-20,0c-2.55-2.83-3.82-7-3.82-12.45V246.77q0-9.14,4.2-13.06t13.34-3.92h35.54q15.76,0,24.25,2.43A36.06,36.06,0,0,1,965.15,240a35,35,0,0,1,9.28,13.25,46.7,46.7,0,0,1,3.17,17.63q0,20.9-12.87,31.67T926.39,313.28Zm-6.72-62.68H901v41.79h18.66A55.61,55.61,0,0,0,936,290.33a19.06,19.06,0,0,0,10-6.71q3.45-4.67,3.45-12.22,0-9.06-5.32-14.74Q938.23,250.6,919.67,250.6Z" transform="translate(-23.72 -26.12)"/><path class="cls-1" d="M1020.14,244.25v99.54h56.15q6.72,0,10.31,3.26a10.62,10.62,0,0,1,3.59,8.21,10.36,10.36,0,0,1-3.54,8.16q-3.56,3.13-10.36,3.13h-66.88q-9,0-13-4t-4-13V244.25q0-8.4,3.78-12.59a12.73,12.73,0,0,1,9.94-4.2,13.23,13.23,0,0,1,10.12,4.15Q1020.14,235.77,1020.14,244.25Z" transform="translate(-23.72 -26.12)"/><path class="cls-1" d="M1195.79,351.06l-6.53-17.16h-55.6l-6.53,17.54q-3.83,10.24-6.53,13.85t-8.86,3.59a13,13,0,0,1-9.23-3.83,11.67,11.67,0,0,1-4-8.67,19.31,19.31,0,0,1,.93-5.78c.62-2,1.64-4.76,3.08-8.31l35-88.8q1.48-3.83,3.59-9.19a46.06,46.06,0,0,1,4.48-8.91,18.27,18.27,0,0,1,6.25-5.74,19.15,19.15,0,0,1,9.56-2.19,19.38,19.38,0,0,1,9.65,2.19,18.76,18.76,0,0,1,6.26,5.65,39.41,39.41,0,0,1,4,7.41q1.63,4,4.16,10.59l35.72,88.25q4.2,10.06,4.2,14.64a12.12,12.12,0,0,1-4,8.72,13.06,13.06,0,0,1-9.56,4,12.35,12.35,0,0,1-5.6-1.17,11.32,11.32,0,0,1-3.92-3.17,29,29,0,0,1-3.4-6.16Q1197.09,354.24,1195.79,351.06Zm-54.85-38h40.86l-20.62-56.44Z" transform="translate(-23.72 -26.12)"/><path class="cls-1" d="M1335.81,325.5a40.22,40.22,0,0,1-6.39,22.3q-6.39,9.88-18.71,15.48t-29.19,5.6q-20.25,0-33.4-7.65A44.57,44.57,0,0,1,1233,346.54q-5.82-9.19-5.83-17.87a12.11,12.11,0,0,1,12.41-12.22,10.59,10.59,0,0,1,7.42,2.8,22.11,22.11,0,0,1,5.17,8.3,55.25,55.25,0,0,0,5.65,10.92,22.9,22.9,0,0,0,8.53,7.23q5.51,2.85,14.46,2.84,12.32,0,20-5.74t7.7-14.31a15.15,15.15,0,0,0-4.16-11.06A26.68,26.68,0,0,0,1293.6,311q-6.58-2.24-17.59-4.76a128.6,128.6,0,0,1-24.67-8.07,39.82,39.82,0,0,1-15.76-12.59q-5.83-8-5.84-19.82a34.09,34.09,0,0,1,6.16-20.06q6.16-8.76,17.82-13.48t27.42-4.71a67.7,67.7,0,0,1,21.79,3.13,46.12,46.12,0,0,1,15.25,8.3,34.68,34.68,0,0,1,8.86,10.87,25,25,0,0,1,2.8,11.1,13.12,13.12,0,0,1-3.5,8.9,11.14,11.14,0,0,1-8.72,4c-3.17,0-5.58-.8-7.23-2.38a32.08,32.08,0,0,1-5.37-7.79,35.24,35.24,0,0,0-9-12.08q-5.23-4.33-16.79-4.34-10.72,0-17.31,4.71t-6.57,11.34a11.45,11.45,0,0,0,2.24,7.09,18.81,18.81,0,0,0,6.15,5.13,42,42,0,0,0,7.93,3.36q4,1.22,13.25,3.54a208.74,208.74,0,0,1,20.94,6,63.65,63.65,0,0,1,15.95,7.93,32.48,32.48,0,0,1,10.26,11.8Q1335.81,315.15,1335.81,325.5Z" transform="translate(-23.72 -26.12)"/><path class="cls-1" d="M1439.63,252.65h-30.22V352q0,8.6-3.83,12.74a12.85,12.85,0,0,1-9.89,4.15,13,13,0,0,1-10-4.2c-2.58-2.8-3.87-7-3.87-12.69V252.65h-30.23q-7.1,0-10.54-3.13a11.61,11.61,0,0,1,.14-16.65q3.58-3.08,10.4-3.08h88.06q7.18,0,10.68,3.17a10.68,10.68,0,0,1,3.5,8.31,10.46,10.46,0,0,1-3.54,8.25Q1446.72,252.66,1439.63,252.65Z" transform="translate(-23.72 -26.12)"/><path class="cls-2" d="M490.74,163.82A12.79,12.79,0,1,0,481.4,140l-73.46,28.8a12.79,12.79,0,0,0,9.34,23.82Z" transform="translate(-23.72 -26.12)"/><path class="cls-2" d="M1440.09,384.15a13.69,13.69,0,0,0-13.3,10.48H578.16q-1.38-3.54-3-7.51L490.43,172.06l-67.32,26.4,34.94,99.67H416.21v63.4h64L500.12,415c6.47,17.32,6.47,17.32,15.71,38.16,5.64,8.94,10.52,15,19.69,15h891.27a13.7,13.7,0,0,0,27-3.24v-67A13.72,13.72,0,0,0,1440.09,384.15Z" transform="translate(-23.72 -26.12)"/><path class="cls-2" d="M259.5,36.61H50.75a13.71,13.71,0,0,0-27,3.23v67a13.71,13.71,0,0,0,27,3.24H259.5Z" transform="translate(-23.72 -26.12)"/><path class="cls-3" d="M392,281.27A13.73,13.73,0,0,0,378.28,295v67a13.73,13.73,0,0,0,27.45,0V295A13.73,13.73,0,0,0,392,281.27Z" transform="translate(-23.72 -26.12)"/><path class="cls-3" d="M280.46,120.88a13.73,13.73,0,0,0,13.73-13.72v-67a13.73,13.73,0,0,0-27.45,0v67A13.72,13.72,0,0,0,280.46,120.88Z" transform="translate(-23.72 -26.12)"/><path class="cls-3" d="M468.57,116.47q-4.54-11.64-10.95-28T444,61.32a55.32,55.32,0,0,0-19-17.48q-11.44-6.48-28.13-6.66h-96v72.94h23.9l-2.22,5.79L213.56,384.84q-12.8,30.71-12.79,44.64v22.35a13.68,13.68,0,0,0,6.51,25.74h67A13.68,13.68,0,0,0,282.67,453V433.79a3.13,3.13,0,0,1,.26-1.24c3-6.95,5.7-13.21,8-18.71l19.9-52.31h60.14v-63.4h-37.4l62.83-172,13.45,35.2,66.55-26.1Z" transform="translate(-23.72 -26.12)"/></svg>