<svg id="Capa_1" data-name="Capa 1" xmlns="http://www.w3.org/2000/svg" viewBox="0 0 1460.58 462.16"><defs><style>.cls-1{fill:#fff;}.cls-2{fill:#3cb4e5;}.cls-3{fill:#003e52;}</style></defs><title>1</title><path class="cls-1" d="M634.78,308h-9.9v44.88q0,8.85-3.91,13.05a13.31,13.31,0,0,1-10.19,4.19q-6.78,0-10.48-4.38t-3.72-12.86V245.42q0-9.15,4.1-13.25t13.24-4.09h46a139.74,139.74,0,0,1,16.29.81,41,41,0,0,1,12.19,3.28,35.43,35.43,0,0,1,11.63,7.91,34.62,34.62,0,0,1,7.66,12,39.77,39.77,0,0,1,2.63,14.43q0,15.63-8.82,25T674.8,304.68a51.77,51.77,0,0,1,14.38,11.81,119.78,119.78,0,0,1,12.25,16.62A123.32,123.32,0,0,1,709.81,349q3,7.1,3,9.76a9.94,9.94,0,0,1-1.76,5.48,12.43,12.43,0,0,1-4.81,4.29,15.29,15.29,0,0,1-7,1.57,13.72,13.72,0,0,1-8-2.24,21.36,21.36,0,0,1-5.58-5.67c-1.55-2.28-3.67-5.65-6.33-10.1l-11.34-18.86A104.19,104.19,0,0,0,657,317.44a27,27,0,0,0-9.77-7.43A33.63,33.63,0,0,0,634.78,308ZM651,249.32h-26.1v38.4h25.34A70.77,70.77,0,0,0,667.37,286c4.63-1.17,8.18-3.17,10.62-6s3.67-6.71,3.67-11.67a17.65,17.65,0,0,0-11.15-16.86Q665.56,249.32,651,249.32Z" transform="translate(-17.55 -20.06)"/><path class="cls-1" d="M818.85,251.42H788V352.89q0,8.76-3.9,13a13.12,13.12,0,0,1-10.1,4.24,13.27,13.27,0,0,1-10.24-4.29q-4-4.29-4-12.95V251.42H728.91q-7.24,0-10.76-3.19a11.85,11.85,0,0,1,.14-17q3.66-3.14,10.62-3.14h89.94q7.33,0,10.91,3.24a10.9,10.9,0,0,1,3.57,8.48,10.71,10.71,0,0,1-3.62,8.43Q826.08,251.43,818.85,251.42Z" transform="translate(-17.55 -20.06)"/><path class="cls-1" d="M841.81,352.89v-110q0-8.58,3.91-12.87a13,13,0,0,1,10.1-4.28,13.45,13.45,0,0,1,10.33,4.24q4,4.23,4,12.91v110q0,8.67-4,12.95a13.39,13.39,0,0,1-10.33,4.29,13,13,0,0,1-10.05-4.34Q841.81,361.45,841.81,352.89Z" transform="translate(-17.55 -20.06)"/><path class="cls-1" d="M939.46,313.35H913.55v39.54q0,8.48-4,12.86a14.1,14.1,0,0,1-20.39,0q-3.92-4.34-3.91-12.71V245.42q0-9.34,4.29-13.34t13.63-4h36.29q16.11,0,24.78,2.48a36.84,36.84,0,0,1,14.81,7.9A35.76,35.76,0,0,1,988.53,252a47.64,47.64,0,0,1,3.24,18q0,21.33-13.15,32.34T939.46,313.35Zm-6.85-64H913.55V292h19.06a56.75,56.75,0,0,0,16.71-2.1,19.45,19.45,0,0,0,10.25-6.86c2.35-3.17,3.52-7.34,3.52-12.48q0-9.24-5.43-15Q951.57,249.33,932.61,249.32Z" transform="translate(-17.55 -20.06)"/><path class="cls-1" d="M1035.21,242.85V344.5h57.36q6.86,0,10.53,3.34a10.86,10.86,0,0,1,3.66,8.38,10.54,10.54,0,0,1-3.62,8.33q-3.62,3.21-10.57,3.2h-68.31q-9.24,0-13.29-4.1t-4.05-13.24V242.85q0-8.58,3.86-12.87a13,13,0,0,1,10.14-4.28,13.46,13.46,0,0,1,10.34,4.24Q1035.22,234.17,1035.21,242.85Z" transform="translate(-17.55 -20.06)"/><path class="cls-1" d="M1214.61,351.93l-6.67-17.53h-56.78l-6.67,17.91q-3.9,10.49-6.67,14.15t-9,3.67a13.24,13.24,0,0,1-9.43-3.91,12,12,0,0,1-4.1-8.86,19.6,19.6,0,0,1,1-5.9q.94-3,3.14-8.48l35.73-90.7c1-2.61,2.23-5.73,3.67-9.39a47.18,47.18,0,0,1,4.57-9.1,18.61,18.61,0,0,1,6.38-5.85,19.5,19.5,0,0,1,9.77-2.24,19.73,19.73,0,0,1,9.86,2.24,19,19,0,0,1,6.38,5.76,40.59,40.59,0,0,1,4.1,7.57q1.67,4,4.24,10.82l36.49,90.13q4.29,10.27,4.28,14.95a12.35,12.35,0,0,1-4,8.91,13.28,13.28,0,0,1-9.76,4.05,12.71,12.71,0,0,1-5.72-1.19,11.7,11.7,0,0,1-4-3.24,29.49,29.49,0,0,1-3.47-6.29C1216.56,356.59,1215.5,354.09,1214.61,351.93Zm-56-38.77h41.73l-21-57.64Z" transform="translate(-17.55 -20.06)"/><path class="cls-1" d="M1357.62,325.83a41.06,41.06,0,0,1-6.53,22.77q-6.52,10.09-19.1,15.81t-29.82,5.72q-20.68,0-34.11-7.81a45.46,45.46,0,0,1-15.48-15q-6-9.37-6-18.24a12.35,12.35,0,0,1,12.67-12.48,10.79,10.79,0,0,1,7.58,2.85,22.75,22.75,0,0,1,5.29,8.48,56.21,56.21,0,0,0,5.76,11.15,23.21,23.21,0,0,0,8.72,7.38q5.61,2.91,14.77,2.91,12.57,0,20.43-5.86t7.86-14.62a15.44,15.44,0,0,0-4.24-11.29,27.27,27.27,0,0,0-11-6.62,185.85,185.85,0,0,0-18-4.86,131.43,131.43,0,0,1-25.21-8.25A40.62,40.62,0,0,1,1255.25,285q-6-8.14-6-20.24a34.81,34.81,0,0,1,6.29-20.49q6.29-9,18.2-13.76t28-4.81a69.18,69.18,0,0,1,22.24,3.19,47,47,0,0,1,15.58,8.48,35.2,35.2,0,0,1,9.05,11.1,25.51,25.51,0,0,1,2.86,11.33,13.37,13.37,0,0,1-3.58,9.1A11.37,11.37,0,0,1,1339,273q-4.86,0-7.38-2.43a32.33,32.33,0,0,1-5.48-7.95,36.15,36.15,0,0,0-9.15-12.34q-5.34-4.44-17.15-4.43-11,0-17.67,4.81t-6.72,11.58a11.7,11.7,0,0,0,2.29,7.24,19.21,19.21,0,0,0,6.29,5.24,42.48,42.48,0,0,0,8.09,3.43q4.1,1.23,13.53,3.62a212.12,212.12,0,0,1,21.39,6.09,65.33,65.33,0,0,1,16.29,8.1,33.32,33.32,0,0,1,10.48,12Q1357.61,315.25,1357.62,325.83Z" transform="translate(-17.55 -20.06)"/><path class="cls-1" d="M1463.65,251.42h-30.86V352.89q0,8.76-3.91,13a13.1,13.1,0,0,1-10.1,4.24,13.28,13.28,0,0,1-10.24-4.29q-4-4.29-4-12.95V251.42h-30.86q-7.24,0-10.77-3.19a11.85,11.85,0,0,1,.14-17q3.67-3.14,10.63-3.14h89.93q7.33,0,10.91,3.24a10.88,10.88,0,0,1,3.58,8.48,10.68,10.68,0,0,1-3.63,8.43Q1470.9,251.43,1463.65,251.42Z" transform="translate(-17.55 -20.06)"/><path class="cls-2" d="M494.53,160.7A13.06,13.06,0,0,0,485,136.38L410,165.8a13.06,13.06,0,1,0,9.53,24.32Z" transform="translate(-17.55 -20.06)"/><path class="cls-2" d="M1464.12,385.72a14,14,0,0,0-13.58,10.72H583.82c-1-2.42-2-5-3.06-7.68L494.21,169.11l-68.76,27,35.69,101.8H418.41v64.74h65.38l20.32,54.59c6.6,17.69,6.6,17.69,16,39,5.76,9.13,10.75,15.32,20.12,15.32h910.27a14,14,0,0,0,27.6-3.31V399.74A14,14,0,0,0,1464.12,385.72Z" transform="translate(-17.55 -20.06)"/><path class="cls-2" d="M258.35,30.77H45.15a14,14,0,0,0-27.6,3.31v68.46a14,14,0,0,0,27.6,3.3h213.2Z" transform="translate(-17.55 -20.06)"/><path class="cls-3" d="M393.69,280.66a14,14,0,0,0-14,14v68.46a14,14,0,0,0,28,0V294.67A14,14,0,0,0,393.69,280.66Z" transform="translate(-17.55 -20.06)"/><path class="cls-3" d="M279.77,116.84a14,14,0,0,0,14-14V34.36a14,14,0,0,0-28,0v68.47A14,14,0,0,0,279.77,116.84Z" transform="translate(-17.55 -20.06)"/><path class="cls-3" d="M471.88,112.34q-4.63-11.9-11.18-28.6T446.76,56a56.6,56.6,0,0,0-19.44-17.85q-11.7-6.63-28.74-6.8h-.53l-.5,0-.5,0H300.5v74.49h24.4l-2.26,5.92L211.44,386.43Q198.38,417.79,198.37,432v22.83A14,14,0,0,0,205,481.13h68.46A14,14,0,0,0,282,456.08V436.43a3.21,3.21,0,0,1,.27-1.27c3.09-7.1,5.81-13.49,8.12-19.11l20.33-53.43h61.43V297.88H334l64.17-175.67,13.74,36,68-26.65Z" transform="translate(-17.55 -20.06)"/></svg>